<svg width="840" height="1040" viewBox="0 0 840 1040" fill="none" xmlns="http://www.w3.org/2000/svg">
  <defs>
    <linearGradient id="lineup-bg" x1="120" y1="40" x2="760" y2="1000" gradientUnits="userSpaceOnUse">
      <stop stop-color="#F4F7FE"/>
      <stop offset="1" stop-color="#FFF5F0"/>
    </linearGradient>
    <linearGradient id="lineup-mat" x1="0" y1="760" x2="840" y2="1040" gradientUnits="userSpaceOnUse">
      <stop stop-color="#E0EBFF"/>
      <stop offset="1" stop-color="#FCE2E6"/>
    </linearGradient>
  </defs>
  <rect width="840" height="1040" rx="32" fill="url(#lineup-bg)"/>
  <rect x="0" y="744" width="840" height="296" fill="url(#lineup-mat)"/>
  <g opacity="0.22" stroke="#91AAD7" stroke-width="10">
    <path d="M90 70V744"/>
    <path d="M300 70V744"/>
    <path d="M522 70V744"/>
    <path d="M740 70V744"/>
    <path d="M30 160H810"/>
  </g>

  <g transform="translate(70 210)">
    <g transform="translate(0 90)">
      <circle cx="68" cy="74" r="42" fill="#F4B88A"/>
      <path d="M28 72C34 42 56 26 82 26C106 26 126 40 128 72V80H28V72Z" fill="#3A292B"/>
      <rect x="26" y="138" width="84" height="152" rx="28" fill="#FFFFFF"/>
      <rect x="54" y="134" width="26" height="166" rx="12" fill="#F4F7FD"/>
      <rect x="16" y="164" width="28" height="112" rx="14" transform="rotate(16 16 164)" fill="#FFFFFF"/>
      <rect x="92" y="160" width="28" height="118" rx="14" transform="rotate(-16 92 160)" fill="#FFFFFF"/>
      <rect x="36" y="280" width="64" height="16" rx="8" fill="#2256B6"/>
      <rect x="34" y="292" width="68" height="12" rx="6" fill="#1A3F87"/>
      <rect x="30" y="290" width="30" height="134" rx="16" fill="#FFFFFF"/>
      <rect x="78" y="290" width="30" height="134" rx="16" fill="#FFFFFF"/>
    </g>

    <g transform="translate(128 46)">
      <circle cx="74" cy="76" r="44" fill="#E0A179"/>
      <path d="M30 74C36 42 62 24 88 24C112 24 134 40 136 74V82H30V74Z" fill="#5F3A1D"/>
      <rect x="28" y="142" width="92" height="164" rx="30" fill="#FFFFFF"/>
      <rect x="58" y="138" width="28" height="180" rx="12" fill="#F4F7FD"/>
      <rect x="16" y="170" width="30" height="118" rx="15" transform="rotate(16 16 170)" fill="#FFFFFF"/>
      <rect x="104" y="166" width="30" height="120" rx="15" transform="rotate(-18 104 166)" fill="#FFFFFF"/>
      <rect x="38" y="296" width="72" height="16" rx="8" fill="#D33A3A"/>
      <rect x="36" y="308" width="76" height="12" rx="6" fill="#B01F31"/>
      <rect x="34" y="306" width="32" height="140" rx="16" fill="#FFFFFF"/>
      <rect x="82" y="306" width="32" height="140" rx="16" fill="#FFFFFF"/>
    </g>

    <g transform="translate(272 0)">
      <circle cx="80" cy="82" r="48" fill="#F9CDA8"/>
      <path d="M34 80C40 44 70 22 98 22C130 22 154 44 156 80V88H34V80Z" fill="#A46D33"/>
      <rect x="28" y="154" width="104" height="184" rx="34" fill="#FFFFFF"/>
      <rect x="62" y="148" width="32" height="198" rx="14" fill="#F4F7FD"/>
      <rect x="18" y="184" width="32" height="132" rx="16" transform="rotate(16 18 184)" fill="#FFFFFF"/>
      <rect x="114" y="180" width="32" height="136" rx="16" transform="rotate(-16 114 180)" fill="#FFFFFF"/>
      <rect x="44" y="328" width="76" height="18" rx="9" fill="#E1B233"/>
      <rect x="42" y="342" width="80" height="12" rx="6" fill="#C6941D"/>
      <rect x="40" y="340" width="34" height="152" rx="17" fill="#FFFFFF"/>
      <rect x="86" y="340" width="34" height="152" rx="17" fill="#FFFFFF"/>
    </g>

    <g transform="translate(432 54)">
      <circle cx="76" cy="76" r="44" fill="#C77A4A"/>
      <path d="M32 74C38 44 62 24 90 24C118 24 142 42 144 74V82H32V74Z" fill="#38282A"/>
      <rect x="28" y="142" width="96" height="172" rx="32" fill="#FFFFFF"/>
      <rect x="60" y="138" width="30" height="184" rx="13" fill="#F4F7FD"/>
      <rect x="18" y="168" width="30" height="124" rx="15" transform="rotate(18 18 168)" fill="#FFFFFF"/>
      <rect x="108" y="164" width="30" height="126" rx="15" transform="rotate(-18 108 164)" fill="#FFFFFF"/>
      <rect x="40" y="304" width="72" height="18" rx="9" fill="#2256B6"/>
      <rect x="38" y="318" width="76" height="12" rx="6" fill="#1A3F87"/>
      <rect x="36" y="316" width="32" height="146" rx="16" fill="#FFFFFF"/>
      <rect x="84" y="316" width="32" height="146" rx="16" fill="#FFFFFF"/>
    </g>
  </g>
</svg>
