<svg width="1260" height="780" viewBox="0 0 1260 780" fill="none" xmlns="http://www.w3.org/2000/svg">
  <defs>
    <linearGradient id="circle-bg" x1="40" y1="26" x2="1220" y2="760" gradientUnits="userSpaceOnUse">
      <stop stop-color="#F4F7FE"/>
      <stop offset="1" stop-color="#FFF6F3"/>
    </linearGradient>
    <linearGradient id="circle-mat" x1="0" y1="520" x2="1260" y2="780" gradientUnits="userSpaceOnUse">
      <stop stop-color="#E0EAFF"/>
      <stop offset="1" stop-color="#FFE0E5"/>
    </linearGradient>
  </defs>
  <rect width="1260" height="780" rx="36" fill="url(#circle-bg)"/>
  <rect x="0" y="526" width="1260" height="254" fill="url(#circle-mat)"/>
  <circle cx="280" cy="170" r="124" fill="#D8E5FF" opacity="0.8"/>
  <circle cx="966" cy="180" r="138" fill="#FFD8DE" opacity="0.8"/>

  <g transform="translate(112 200)">
    <circle cx="454" cy="178" r="160" fill="white" stroke="#E3E9F5" stroke-width="22"/>
    <circle cx="454" cy="178" r="112" fill="#F7F9FE"/>

    <g transform="translate(80 22)">
      <g transform="translate(0 88)">
        <circle cx="86" cy="82" r="46" fill="#F4B88A"/>
        <path d="M40 80C46 48 70 26 96 26C122 26 144 48 146 82V90H40V80Z" fill="#3C2D30"/>
        <rect x="38" y="152" width="96" height="162" rx="32" fill="#FFFFFF"/>
        <rect x="70" y="148" width="28" height="176" rx="13" fill="#F5F7FD"/>
        <rect x="24" y="182" width="30" height="118" rx="15" transform="rotate(18 24 182)" fill="#FFFFFF"/>
        <rect x="120" y="176" width="30" height="124" rx="15" transform="rotate(-18 120 176)" fill="#FFFFFF"/>
        <rect x="48" y="302" width="74" height="18" rx="9" fill="#2256B6"/>
      </g>

      <g transform="translate(166 14)">
        <circle cx="94" cy="78" r="48" fill="#F8CC9E"/>
        <path d="M46 76C50 44 78 22 108 22C138 22 164 44 166 78V86H46V76Z" fill="#A36A30"/>
        <rect x="42" y="146" width="106" height="174" rx="34" fill="#FFFFFF"/>
        <rect x="76" y="140" width="32" height="188" rx="14" fill="#F5F7FD"/>
        <rect x="28" y="176" width="32" height="126" rx="16" transform="rotate(18 28 176)" fill="#FFFFFF"/>
        <rect x="136" y="170" width="32" height="130" rx="16" transform="rotate(-18 136 170)" fill="#FFFFFF"/>
        <rect x="56" y="308" width="80" height="18" rx="9" fill="#E2B433"/>
      </g>

      <g transform="translate(360 72)">
        <circle cx="86" cy="82" r="46" fill="#D88B60"/>
        <path d="M40 80C44 48 70 26 96 26C124 26 146 48 148 82V90H40V80Z" fill="#36282B"/>
        <rect x="38" y="152" width="96" height="162" rx="32" fill="#FFFFFF"/>
        <rect x="70" y="148" width="28" height="176" rx="13" fill="#F5F7FD"/>
        <rect x="24" y="182" width="30" height="118" rx="15" transform="rotate(18 24 182)" fill="#FFFFFF"/>
        <rect x="120" y="176" width="30" height="124" rx="15" transform="rotate(-18 120 176)" fill="#FFFFFF"/>
        <rect x="48" y="302" width="74" height="18" rx="9" fill="#D33A3A"/>
      </g>

      <g transform="translate(526 20)">
        <circle cx="94" cy="78" r="48" fill="#C67749"/>
        <path d="M46 76C52 44 76 22 108 22C138 22 164 44 166 78V86H46V76Z" fill="#33282A"/>
        <rect x="42" y="146" width="106" height="174" rx="34" fill="#FFFFFF"/>
        <rect x="76" y="140" width="32" height="188" rx="14" fill="#F5F7FD"/>
        <rect x="28" y="176" width="32" height="126" rx="16" transform="rotate(18 28 176)" fill="#FFFFFF"/>
        <rect x="136" y="170" width="32" height="130" rx="16" transform="rotate(-18 136 170)" fill="#FFFFFF"/>
        <rect x="56" y="308" width="80" height="18" rx="9" fill="#2256B6"/>
      </g>
    </g>
  </g>
</svg>
