<svg width="920" height="920" viewBox="0 0 920 920" fill="none" xmlns="http://www.w3.org/2000/svg">
  <defs>
    <linearGradient id="focus-bg" x1="70" y1="56" x2="846" y2="864" gradientUnits="userSpaceOnUse">
      <stop stop-color="#F3F7FF"/>
      <stop offset="1" stop-color="#FFF4F1"/>
    </linearGradient>
    <linearGradient id="focus-mat" x1="0" y1="644" x2="920" y2="920" gradientUnits="userSpaceOnUse">
      <stop stop-color="#DFEBFF"/>
      <stop offset="1" stop-color="#FFE0E5"/>
    </linearGradient>
  </defs>
  <rect width="920" height="920" rx="36" fill="url(#focus-bg)"/>
  <rect x="0" y="650" width="920" height="270" fill="url(#focus-mat)"/>
  <circle cx="250" cy="208" r="120" fill="#DCE8FF" opacity="0.8"/>
  <circle cx="700" cy="182" r="124" fill="#FFD9DF" opacity="0.82"/>

  <g transform="translate(112 136)">
    <g transform="translate(0 42)">
      <circle cx="176" cy="108" r="64" fill="#F1B589"/>
      <path d="M112 106C118 60 156 34 196 36C234 38 268 68 270 112V122H112V106Z" fill="#403034"/>
      <rect x="112" y="208" width="160" height="246" rx="52" fill="#FFFFFF"/>
      <rect x="166" y="202" width="56" height="260" rx="20" fill="#F5F7FD"/>
      <rect x="98" y="242" width="46" height="170" rx="23" transform="rotate(26 98 242)" fill="#FFFFFF"/>
      <rect x="238" y="228" width="46" height="194" rx="23" transform="rotate(-42 238 228)" fill="#FFFFFF"/>
      <rect x="146" y="444" width="104" height="22" rx="11" fill="#2256B6"/>
      <rect x="140" y="462" width="112" height="18" rx="9" fill="#1A3F87"/>
      <rect x="132" y="458" width="52" height="216" rx="24" fill="#FFFFFF"/>
      <rect x="212" y="458" width="52" height="216" rx="24" fill="#FFFFFF"/>
    </g>

    <g transform="translate(324 0)">
      <circle cx="152" cy="116" r="68" fill="#D88A5B"/>
      <path d="M84 112C90 62 130 34 174 36C216 38 252 70 252 118V128H84V112Z" fill="#2E2327"/>
      <rect x="92" y="220" width="170" height="258" rx="54" fill="#FFFFFF"/>
      <rect x="146" y="212" width="60" height="270" rx="21" fill="#F4F7FD"/>
      <rect x="72" y="244" width="48" height="200" rx="24" transform="rotate(42 72 244)" fill="#FFFFFF"/>
      <rect x="234" y="248" width="48" height="192" rx="24" transform="rotate(-18 234 248)" fill="#FFFFFF"/>
      <rect x="122" y="470" width="112" height="24" rx="12" fill="#D33A3A"/>
      <rect x="116" y="490" width="120" height="18" rx="9" fill="#B01F31"/>
      <rect x="108" y="486" width="54" height="210" rx="24" fill="#FFFFFF"/>
      <rect x="194" y="486" width="54" height="210" rx="24" fill="#FFFFFF"/>
    </g>
  </g>
</svg>
